<?xml version="1.0" encoding="UTF-8" standalone="no"?>
<!-- Generated by IcoMoon.io -->

<svg
   version="1.1"
   width="24"
   height="28"
   viewBox="0 0 24 28"
   id="svg1"
   sodipodi:docname="exclamation.svg"
   inkscape:version="1.4.1 (93de688d07, 2025-03-30)"
   xmlns:inkscape="http://www.inkscape.org/namespaces/inkscape"
   xmlns:sodipodi="http://sodipodi.sourceforge.net/DTD/sodipodi-0.dtd"
   xmlns="http://www.w3.org/2000/svg"
   xmlns:svg="http://www.w3.org/2000/svg">
  <defs
     id="defs1" />
  <sodipodi:namedview
     id="namedview1"
     pagecolor="#ffffff"
     bordercolor="#000000"
     borderopacity="0.25"
     inkscape:showpageshadow="2"
     inkscape:pageopacity="0.0"
     inkscape:pagecheckerboard="0"
     inkscape:deskcolor="#d1d1d1"
     inkscape:zoom="29.107143"
     inkscape:cx="12.007362"
     inkscape:cy="14"
     inkscape:window-width="1920"
     inkscape:window-height="1011"
     inkscape:window-x="0"
     inkscape:window-y="0"
     inkscape:window-maximized="1"
     inkscape:current-layer="svg1" />
  <path
     d="M 14.394993,22.962434 V 19.40692 c 0,-0.33651 -0.262262,-0.617934 -0.579612,-0.617934 h -3.592638 c -0.3365106,0 -0.6179339,0.280226 -0.6179339,0.617934 v 3.555514 c 0,0.33651 0.2802258,0.617934 0.6179339,0.617934 h 3.592638 c 0.318547,0 0.579612,-0.280226 0.579612,-0.617934 z m -0.03712,-6.43681 0.336511,-11.6197885 c 0,-0.1305325 -0.05629,-0.2622626 -0.186818,-0.3365105 C 14.394993,4.4759165 14.227337,4.4196318 14.058483,4.4196318 H 9.9425171 c -0.168854,0 -0.3365105,0.056285 -0.4490798,0.1496932 C 9.3629048,4.6447704 9.3066201,4.775303 9.3066201,4.9058355 L 9.6251674,16.525624 c 0,0.262263 0.2802257,0.468241 0.6358966,0.468241 h 3.462106 c 0.33651,0 0.617934,-0.205978 0.635897,-0.468241 z"
     id="path1-7"
     style="fill:#7d0000;fill-opacity:1;stroke-width:1" />
</svg>
