<?xml version="1.0" encoding="UTF-8" standalone="no"?>
<!-- Generated by IcoMoon.io -->

<svg
   version="1.1"
   width="24"
   height="28"
   viewBox="0 0 24 28"
   id="svg1"
   sodipodi:docname="hourglass.svg"
   inkscape:version="1.4.2 (ebf0e940d0, 2025-05-08)"
   xmlns:inkscape="http://www.inkscape.org/namespaces/inkscape"
   xmlns:sodipodi="http://sodipodi.sourceforge.net/DTD/sodipodi-0.dtd"
   xmlns="http://www.w3.org/2000/svg"
   xmlns:svg="http://www.w3.org/2000/svg">
  <defs
     id="defs1" />
  <sodipodi:namedview
     id="namedview1"
     pagecolor="#ffffff"
     bordercolor="#000000"
     borderopacity="0.25"
     inkscape:showpageshadow="2"
     inkscape:pageopacity="0.0"
     inkscape:pagecheckerboard="0"
     inkscape:deskcolor="#d1d1d1"
     inkscape:zoom="29.107143"
     inkscape:cx="12.007362"
     inkscape:cy="14"
     inkscape:window-width="1920"
     inkscape:window-height="1011"
     inkscape:window-x="0"
     inkscape:window-y="0"
     inkscape:window-maximized="1"
     inkscape:current-layer="svg1" />
  <path
     d="M23.5 25c0.281 0 0.5 0.219 0.5 0.5v2c0 0.281-0.219 0.5-0.5 0.5h-23c-0.281 0-0.5-0.219-0.5-0.5v-2c0-0.281 0.219-0.5 0.5-0.5h23zM2.031 24c0.297-5.266 4.594-8.094 7.469-10-2.875-1.906-7.172-4.734-7.469-10h19.938c-0.297 5.266-4.594 8.094-7.469 10 2.875 1.906 7.172 4.734 7.469 10h-19.938zM23.5 0c0.281 0 0.5 0.219 0.5 0.5v2c0 0.281-0.219 0.5-0.5 0.5h-23c-0.281 0-0.5-0.219-0.5-0.5v-2c0-0.281 0.219-0.5 0.5-0.5h23z"
     id="path1"
     style="fill:#ffdf20;fill-opacity:1" />
</svg>
