<svg width="638" height="807" viewBox="0 0 638 807" fill="none" xmlns="http://www.w3.org/2000/svg">
<path d="M2.48877 756.96L2.48877 709.783L19.6421 725.626L19.6421 753.087L56.3501 789.35H85.5107L96.4888 804.489H48.8026L2.48877 756.96Z" stroke="#4DFFC4" stroke-opacity="0.8" stroke-width="4"/>
<path d="M635.489 756.96V709.783L618.335 725.626V753.087L581.627 789.35H552.467L541.489 804.489H589.175L635.489 756.96Z" stroke="#4DFFC4" stroke-opacity="0.8" stroke-width="4"/>
<path d="M2.48877 50.0401L2.48877 97.217L19.6421 81.3741L19.6421 53.9129L56.3501 17.65L85.5107 17.65L96.4888 2.51116L48.8026 2.51116L2.48877 50.0401Z" stroke="#4DFFC4" stroke-opacity="0.8" stroke-width="4"/>
<path d="M635.489 50.0401V97.217L618.335 81.3741V53.9129L581.627 17.65L552.467 17.65L541.489 2.51116L589.175 2.51116L635.489 50.0401Z" stroke="#4DFFC4" stroke-opacity="0.8" stroke-width="4"/>
</svg>
