<svg width="190" height="32" viewBox="0 0 190 32" fill="none" xmlns="http://www.w3.org/2000/svg">
<mask id="path-1-outside-1_40_604" maskUnits="userSpaceOnUse" x="0" y="0" width="190" height="32" fill="black">
<rect fill="white" width="190" height="32"/>
<path d="M2 13.5L10.8616 1H166.027L188 19.5L179.048 31L23.8824 30.9997L2 13.5Z"/>
<path d="M45.7266 18.5781C45.6589 19.1042 45.5234 19.5885 45.3203 20.0312C45.1172 20.4688 44.8542 20.8438 44.5312 21.1562C44.2031 21.474 43.8151 21.7214 43.3672 21.8984C42.9245 22.0703 42.4297 22.1562 41.8828 22.1562C41.4141 22.1562 40.987 22.0911 40.6016 21.9609C40.2214 21.8255 39.8828 21.6406 39.5859 21.4062C39.2839 21.1719 39.0234 20.8958 38.8047 20.5781C38.5911 20.2604 38.4141 19.9141 38.2734 19.5391C38.1276 19.1641 38.0182 18.7708 37.9453 18.3594C37.8776 17.9479 37.8411 17.5312 37.8359 17.1094V15.5234C37.8411 15.1016 37.8776 14.6849 37.9453 14.2734C38.0182 13.862 38.1276 13.4688 38.2734 13.0938C38.4141 12.7188 38.5911 12.3724 38.8047 12.0547C39.0234 11.7318 39.2839 11.4531 39.5859 11.2188C39.8828 10.9844 40.2214 10.8021 40.6016 10.6719C40.9818 10.5365 41.4089 10.4688 41.8828 10.4688C42.4505 10.4688 42.9583 10.5573 43.4062 10.7344C43.8542 10.9062 44.2396 11.151 44.5625 11.4688C44.8854 11.7917 45.1432 12.1771 45.3359 12.625C45.5339 13.0729 45.6641 13.5677 45.7266 14.1094H44.2812C44.2344 13.7656 44.1536 13.4453 44.0391 13.1484C43.9245 12.8516 43.7708 12.5911 43.5781 12.3672C43.3854 12.1432 43.1484 11.9688 42.8672 11.8438C42.5911 11.7135 42.263 11.6484 41.8828 11.6484C41.5391 11.6484 41.2344 11.7057 40.9688 11.8203C40.7083 11.9297 40.4844 12.0807 40.2969 12.2734C40.1042 12.4661 39.9427 12.6901 39.8125 12.9453C39.6875 13.2005 39.5859 13.4714 39.5078 13.7578C39.4297 14.0443 39.3724 14.3385 39.3359 14.6406C39.3047 14.9375 39.2891 15.2266 39.2891 15.5078V17.1094C39.2891 17.3906 39.3047 17.6823 39.3359 17.9844C39.3724 18.2812 39.4297 18.5729 39.5078 18.8594C39.5859 19.151 39.6875 19.4245 39.8125 19.6797C39.9375 19.9349 40.0964 20.1589 40.2891 20.3516C40.4818 20.5495 40.7083 20.7057 40.9688 20.8203C41.2292 20.9297 41.5339 20.9844 41.8828 20.9844C42.263 20.9844 42.5911 20.9245 42.8672 20.8047C43.1484 20.6849 43.3854 20.5156 43.5781 20.2969C43.7708 20.0833 43.9245 19.8307 44.0391 19.5391C44.1536 19.2422 44.2344 18.9219 44.2812 18.5781H45.7266Z"/>
<path d="M47.5625 17.6953C47.5625 17.0859 47.651 16.5208 47.8281 16C48.0052 15.474 48.2604 15.0182 48.5938 14.6328C48.9219 14.2474 49.3229 13.9453 49.7969 13.7266C50.2708 13.5026 50.8047 13.3906 51.3984 13.3906C51.9974 13.3906 52.5339 13.5026 53.0078 13.7266C53.487 13.9453 53.8932 14.2474 54.2266 14.6328C54.5547 15.0182 54.8073 15.474 54.9844 16C55.1615 16.5208 55.25 17.0859 55.25 17.6953V17.8672C55.25 18.4766 55.1615 19.0417 54.9844 19.5625C54.8073 20.0833 54.5547 20.5365 54.2266 20.9219C53.8932 21.3073 53.4896 21.6094 53.0156 21.8281C52.5417 22.0469 52.0078 22.1562 51.4141 22.1562C50.8151 22.1562 50.276 22.0469 49.7969 21.8281C49.3229 21.6094 48.9219 21.3073 48.5938 20.9219C48.2604 20.5365 48.0052 20.0833 47.8281 19.5625C47.651 19.0417 47.5625 18.4766 47.5625 17.8672V17.6953ZM49.0078 17.8672C49.0078 18.2839 49.0573 18.6823 49.1562 19.0625C49.2552 19.4375 49.4062 19.7682 49.6094 20.0547C49.8073 20.3411 50.0573 20.5677 50.3594 20.7344C50.6615 20.901 51.013 20.9844 51.4141 20.9844C51.8099 20.9844 52.1562 20.901 52.4531 20.7344C52.7552 20.5677 53.0078 20.3411 53.2109 20.0547C53.4089 19.7682 53.5573 19.4375 53.6562 19.0625C53.7552 18.6823 53.8047 18.2839 53.8047 17.8672V17.6953C53.8047 17.2839 53.7526 16.8906 53.6484 16.5156C53.5495 16.1354 53.401 15.8021 53.2031 15.5156C53 15.2292 52.7474 15.0026 52.4453 14.8359C52.1484 14.6641 51.7995 14.5781 51.3984 14.5781C50.9974 14.5781 50.6484 14.6641 50.3516 14.8359C50.0547 15.0026 49.8073 15.2292 49.6094 15.5156C49.4062 15.8021 49.2552 16.1354 49.1562 16.5156C49.0573 16.8906 49.0078 17.2839 49.0078 17.6953V17.8672Z"/>
<path d="M57.5781 22V13.5469H58.875L58.9766 14.7969C59.1016 14.6198 59.237 14.4583 59.3828 14.3125C59.5339 14.1615 59.6927 14.0312 59.8594 13.9219C60.1094 13.7552 60.3802 13.6276 60.6719 13.5391C60.9688 13.4453 61.2812 13.3958 61.6094 13.3906C62.0521 13.3906 62.4531 13.4531 62.8125 13.5781C63.1771 13.7031 63.487 13.8984 63.7422 14.1641C63.9974 14.4297 64.1927 14.7682 64.3281 15.1797C64.4688 15.5859 64.5391 16.0703 64.5391 16.6328V22H63.0938V16.6641C63.0938 16.2891 63.0521 15.9714 62.9688 15.7109C62.8854 15.4505 62.763 15.2396 62.6016 15.0781C62.4349 14.9167 62.2318 14.7995 61.9922 14.7266C61.7578 14.6536 61.487 14.6172 61.1797 14.6172C60.9141 14.6172 60.6667 14.6562 60.4375 14.7344C60.2083 14.8073 59.9974 14.9089 59.8047 15.0391C59.6484 15.1536 59.5026 15.2865 59.3672 15.4375C59.237 15.5885 59.1224 15.7552 59.0234 15.9375V22H57.5781Z"/>
<path d="M70.6094 11.5V13.5469H73.8281V14.6641H70.6094V19.2578C70.6094 19.5859 70.651 19.8568 70.7344 20.0703C70.8177 20.2839 70.9323 20.4531 71.0781 20.5781C71.224 20.7083 71.3906 20.7995 71.5781 20.8516C71.7708 20.9036 71.974 20.9297 72.1875 20.9297C72.3438 20.9297 72.5052 20.9219 72.6719 20.9062C72.8385 20.8854 73.0026 20.862 73.1641 20.8359C73.3203 20.8099 73.4661 20.7839 73.6016 20.7578C73.7422 20.7266 73.8568 20.7005 73.9453 20.6797L74.1484 21.7031C74.0286 21.776 73.8828 21.8411 73.7109 21.8984C73.5391 21.9505 73.3516 21.9948 73.1484 22.0312C72.9453 22.0729 72.7292 22.1042 72.5 22.125C72.276 22.1458 72.0521 22.1562 71.8281 22.1562C71.4531 22.1562 71.1016 22.1042 70.7734 22C70.4505 21.8906 70.1693 21.7188 69.9297 21.4844C69.6901 21.2552 69.5 20.9583 69.3594 20.5938C69.224 20.224 69.1562 19.7786 69.1562 19.2578V14.6641H66.9375V13.5469H69.1562V11.5H70.6094Z"/>
<path d="M77.0234 13.5469H81.3438V20.75H84.1016V22H77.0234V20.75H79.8984V14.8047H77.0234V13.5469ZM79.7109 11.3281C79.7109 11.2031 79.7292 11.0859 79.7656 10.9766C79.8073 10.8672 79.8698 10.7734 79.9531 10.6953C80.0208 10.6276 80.1068 10.5755 80.2109 10.5391C80.3203 10.4974 80.4427 10.4766 80.5781 10.4766C80.7135 10.4766 80.8333 10.4974 80.9375 10.5391C81.0417 10.5755 81.1276 10.6276 81.1953 10.6953C81.2786 10.7682 81.3411 10.8594 81.3828 10.9688C81.4245 11.0781 81.4453 11.1979 81.4453 11.3281C81.4453 11.5625 81.3724 11.7578 81.2266 11.9141C81.0807 12.0703 80.8646 12.1484 80.5781 12.1484C80.2865 12.1484 80.0677 12.0703 79.9219 11.9141C79.7812 11.7578 79.7109 11.5625 79.7109 11.3281Z"/>
<path d="M86.4062 22V13.5469H87.7031L87.8047 14.7969C87.9297 14.6198 88.0651 14.4583 88.2109 14.3125C88.362 14.1615 88.5208 14.0312 88.6875 13.9219C88.9375 13.7552 89.2083 13.6276 89.5 13.5391C89.7969 13.4453 90.1094 13.3958 90.4375 13.3906C90.8802 13.3906 91.2812 13.4531 91.6406 13.5781C92.0052 13.7031 92.3151 13.8984 92.5703 14.1641C92.8255 14.4297 93.0208 14.7682 93.1562 15.1797C93.2969 15.5859 93.3672 16.0703 93.3672 16.6328V22H91.9219V16.6641C91.9219 16.2891 91.8802 15.9714 91.7969 15.7109C91.7135 15.4505 91.5911 15.2396 91.4297 15.0781C91.263 14.9167 91.0599 14.7995 90.8203 14.7266C90.5859 14.6536 90.3151 14.6172 90.0078 14.6172C89.7422 14.6172 89.4948 14.6562 89.2656 14.7344C89.0365 14.8073 88.8255 14.9089 88.6328 15.0391C88.4766 15.1536 88.3307 15.2865 88.1953 15.4375C88.0651 15.5885 87.9505 15.7552 87.8516 15.9375V22H86.4062Z"/>
<path d="M101.586 22L101.5 20.8359C101.219 21.2526 100.867 21.5781 100.445 21.8125C100.023 22.0417 99.5365 22.1562 98.9844 22.1562C98.5417 22.1562 98.1406 22.0885 97.7812 21.9531C97.4219 21.8125 97.1146 21.5964 96.8594 21.3047C96.6042 21.013 96.4062 20.6432 96.2656 20.1953C96.1302 19.7422 96.0625 19.2005 96.0625 18.5703V13.5469H97.5078V18.5859C97.5078 19.0443 97.5443 19.4245 97.6172 19.7266C97.6901 20.0286 97.7995 20.2682 97.9453 20.4453C98.0911 20.6276 98.2682 20.7552 98.4766 20.8281C98.6901 20.901 98.9349 20.9375 99.2109 20.9375C99.5339 20.9375 99.8229 20.901 100.078 20.8281C100.333 20.75 100.555 20.6432 100.742 20.5078C100.898 20.3984 101.034 20.2682 101.148 20.1172C101.268 19.9609 101.367 19.7917 101.445 19.6094V13.5469H102.898V22H101.586Z"/>
<path d="M105.852 13.5469H110.172V20.75H112.93V22H105.852V20.75H108.727V14.8047H105.852V13.5469ZM108.539 11.3281C108.539 11.2031 108.557 11.0859 108.594 10.9766C108.635 10.8672 108.698 10.7734 108.781 10.6953C108.849 10.6276 108.935 10.5755 109.039 10.5391C109.148 10.4974 109.271 10.4766 109.406 10.4766C109.542 10.4766 109.661 10.4974 109.766 10.5391C109.87 10.5755 109.956 10.6276 110.023 10.6953C110.107 10.7682 110.169 10.8594 110.211 10.9688C110.253 11.0781 110.273 11.1979 110.273 11.3281C110.273 11.5625 110.201 11.7578 110.055 11.9141C109.909 12.0703 109.693 12.1484 109.406 12.1484C109.115 12.1484 108.896 12.0703 108.75 11.9141C108.609 11.7578 108.539 11.5625 108.539 11.3281Z"/>
<path d="M118.656 11.5V13.5469H121.875V14.6641H118.656V19.2578C118.656 19.5859 118.698 19.8568 118.781 20.0703C118.865 20.2839 118.979 20.4531 119.125 20.5781C119.271 20.7083 119.438 20.7995 119.625 20.8516C119.818 20.9036 120.021 20.9297 120.234 20.9297C120.391 20.9297 120.552 20.9219 120.719 20.9062C120.885 20.8854 121.049 20.862 121.211 20.8359C121.367 20.8099 121.513 20.7839 121.648 20.7578C121.789 20.7266 121.904 20.7005 121.992 20.6797L122.195 21.7031C122.076 21.776 121.93 21.8411 121.758 21.8984C121.586 21.9505 121.398 21.9948 121.195 22.0312C120.992 22.0729 120.776 22.1042 120.547 22.125C120.323 22.1458 120.099 22.1562 119.875 22.1562C119.5 22.1562 119.148 22.1042 118.82 22C118.497 21.8906 118.216 21.7188 117.977 21.4844C117.737 21.2552 117.547 20.9583 117.406 20.5938C117.271 20.224 117.203 19.7786 117.203 19.2578V14.6641H114.984V13.5469H117.203V11.5H118.656Z"/>
<path d="M125.523 25.4141C125.388 25.4141 125.229 25.3984 125.047 25.3672C124.865 25.3359 124.727 25.3099 124.633 25.2891L124.867 24.1094C124.997 24.1198 125.125 24.1276 125.25 24.1328C125.38 24.1432 125.482 24.1484 125.555 24.1484C125.753 24.1484 125.932 24.0938 126.094 23.9844C126.26 23.875 126.409 23.7448 126.539 23.5938C126.664 23.4427 126.771 23.2865 126.859 23.125C126.953 22.9635 127.026 22.8307 127.078 22.7266L127.656 21.6016L124.016 13.5469H125.633L127.953 19L128.328 20.0234L128.727 19.0312L130.906 13.5469H132.523L128.234 23.3047C128.135 23.5234 128.008 23.7552 127.852 24C127.701 24.2448 127.516 24.4714 127.297 24.6797C127.078 24.888 126.823 25.0625 126.531 25.2031C126.24 25.3438 125.904 25.4141 125.523 25.4141Z"/>
<path d="M144.047 22V10.625H147.43C147.898 10.6302 148.357 10.6927 148.805 10.8125C149.253 10.9271 149.651 11.1068 150 11.3516C150.349 11.5964 150.628 11.9089 150.836 12.2891C151.044 12.6693 151.146 13.125 151.141 13.6562C151.135 13.9531 151.086 14.224 150.992 14.4688C150.904 14.7135 150.781 14.9323 150.625 15.125C150.464 15.3229 150.284 15.4896 150.086 15.625C149.893 15.7604 149.659 15.888 149.383 16.0078V16.0312C149.669 16.099 149.945 16.2214 150.211 16.3984C150.477 16.5755 150.695 16.7708 150.867 16.9844C151.049 17.2188 151.19 17.4818 151.289 17.7734C151.393 18.0651 151.445 18.3802 151.445 18.7188C151.451 19.25 151.349 19.7188 151.141 20.125C150.932 20.5312 150.654 20.8698 150.305 21.1406C149.956 21.4167 149.552 21.6276 149.094 21.7734C148.641 21.9193 148.172 21.9948 147.688 22H144.047ZM145.5 16.6797V20.7734H147.727C148.029 20.7682 148.315 20.7188 148.586 20.625C148.857 20.526 149.096 20.3906 149.305 20.2188C149.513 20.0469 149.677 19.8359 149.797 19.5859C149.922 19.3359 149.984 19.0521 149.984 18.7344C149.99 18.4115 149.935 18.125 149.82 17.875C149.711 17.625 149.557 17.4115 149.359 17.2344C149.161 17.0625 148.93 16.9297 148.664 16.8359C148.398 16.7422 148.112 16.6901 147.805 16.6797H145.5ZM145.5 15.4766H147.516C147.786 15.4714 148.052 15.4297 148.312 15.3516C148.573 15.2682 148.805 15.1484 149.008 14.9922C149.211 14.8411 149.375 14.6536 149.5 14.4297C149.625 14.2057 149.688 13.9453 149.688 13.6484C149.688 13.3307 149.625 13.0599 149.5 12.8359C149.38 12.612 149.219 12.4271 149.016 12.2812C148.807 12.1406 148.568 12.0365 148.297 11.9688C148.031 11.901 147.758 11.8646 147.477 11.8594H145.5V15.4766Z"/>
</mask>
<path d="M2 13.5L10.8616 1H166.027L188 19.5L179.048 31L23.8824 30.9997L2 13.5Z" fill="#4DFFC4" fill-opacity="0.4"/>
<path d="M45.7266 18.5781C45.6589 19.1042 45.5234 19.5885 45.3203 20.0312C45.1172 20.4688 44.8542 20.8438 44.5312 21.1562C44.2031 21.474 43.8151 21.7214 43.3672 21.8984C42.9245 22.0703 42.4297 22.1562 41.8828 22.1562C41.4141 22.1562 40.987 22.0911 40.6016 21.9609C40.2214 21.8255 39.8828 21.6406 39.5859 21.4062C39.2839 21.1719 39.0234 20.8958 38.8047 20.5781C38.5911 20.2604 38.4141 19.9141 38.2734 19.5391C38.1276 19.1641 38.0182 18.7708 37.9453 18.3594C37.8776 17.9479 37.8411 17.5312 37.8359 17.1094V15.5234C37.8411 15.1016 37.8776 14.6849 37.9453 14.2734C38.0182 13.862 38.1276 13.4688 38.2734 13.0938C38.4141 12.7188 38.5911 12.3724 38.8047 12.0547C39.0234 11.7318 39.2839 11.4531 39.5859 11.2188C39.8828 10.9844 40.2214 10.8021 40.6016 10.6719C40.9818 10.5365 41.4089 10.4688 41.8828 10.4688C42.4505 10.4688 42.9583 10.5573 43.4062 10.7344C43.8542 10.9062 44.2396 11.151 44.5625 11.4688C44.8854 11.7917 45.1432 12.1771 45.3359 12.625C45.5339 13.0729 45.6641 13.5677 45.7266 14.1094H44.2812C44.2344 13.7656 44.1536 13.4453 44.0391 13.1484C43.9245 12.8516 43.7708 12.5911 43.5781 12.3672C43.3854 12.1432 43.1484 11.9688 42.8672 11.8438C42.5911 11.7135 42.263 11.6484 41.8828 11.6484C41.5391 11.6484 41.2344 11.7057 40.9688 11.8203C40.7083 11.9297 40.4844 12.0807 40.2969 12.2734C40.1042 12.4661 39.9427 12.6901 39.8125 12.9453C39.6875 13.2005 39.5859 13.4714 39.5078 13.7578C39.4297 14.0443 39.3724 14.3385 39.3359 14.6406C39.3047 14.9375 39.2891 15.2266 39.2891 15.5078V17.1094C39.2891 17.3906 39.3047 17.6823 39.3359 17.9844C39.3724 18.2812 39.4297 18.5729 39.5078 18.8594C39.5859 19.151 39.6875 19.4245 39.8125 19.6797C39.9375 19.9349 40.0964 20.1589 40.2891 20.3516C40.4818 20.5495 40.7083 20.7057 40.9688 20.8203C41.2292 20.9297 41.5339 20.9844 41.8828 20.9844C42.263 20.9844 42.5911 20.9245 42.8672 20.8047C43.1484 20.6849 43.3854 20.5156 43.5781 20.2969C43.7708 20.0833 43.9245 19.8307 44.0391 19.5391C44.1536 19.2422 44.2344 18.9219 44.2812 18.5781H45.7266Z" fill="white"/>
<path d="M47.5625 17.6953C47.5625 17.0859 47.651 16.5208 47.8281 16C48.0052 15.474 48.2604 15.0182 48.5938 14.6328C48.9219 14.2474 49.3229 13.9453 49.7969 13.7266C50.2708 13.5026 50.8047 13.3906 51.3984 13.3906C51.9974 13.3906 52.5339 13.5026 53.0078 13.7266C53.487 13.9453 53.8932 14.2474 54.2266 14.6328C54.5547 15.0182 54.8073 15.474 54.9844 16C55.1615 16.5208 55.25 17.0859 55.25 17.6953V17.8672C55.25 18.4766 55.1615 19.0417 54.9844 19.5625C54.8073 20.0833 54.5547 20.5365 54.2266 20.9219C53.8932 21.3073 53.4896 21.6094 53.0156 21.8281C52.5417 22.0469 52.0078 22.1562 51.4141 22.1562C50.8151 22.1562 50.276 22.0469 49.7969 21.8281C49.3229 21.6094 48.9219 21.3073 48.5938 20.9219C48.2604 20.5365 48.0052 20.0833 47.8281 19.5625C47.651 19.0417 47.5625 18.4766 47.5625 17.8672V17.6953ZM49.0078 17.8672C49.0078 18.2839 49.0573 18.6823 49.1562 19.0625C49.2552 19.4375 49.4062 19.7682 49.6094 20.0547C49.8073 20.3411 50.0573 20.5677 50.3594 20.7344C50.6615 20.901 51.013 20.9844 51.4141 20.9844C51.8099 20.9844 52.1562 20.901 52.4531 20.7344C52.7552 20.5677 53.0078 20.3411 53.2109 20.0547C53.4089 19.7682 53.5573 19.4375 53.6562 19.0625C53.7552 18.6823 53.8047 18.2839 53.8047 17.8672V17.6953C53.8047 17.2839 53.7526 16.8906 53.6484 16.5156C53.5495 16.1354 53.401 15.8021 53.2031 15.5156C53 15.2292 52.7474 15.0026 52.4453 14.8359C52.1484 14.6641 51.7995 14.5781 51.3984 14.5781C50.9974 14.5781 50.6484 14.6641 50.3516 14.8359C50.0547 15.0026 49.8073 15.2292 49.6094 15.5156C49.4062 15.8021 49.2552 16.1354 49.1562 16.5156C49.0573 16.8906 49.0078 17.2839 49.0078 17.6953V17.8672Z" fill="white"/>
<path d="M57.5781 22V13.5469H58.875L58.9766 14.7969C59.1016 14.6198 59.237 14.4583 59.3828 14.3125C59.5339 14.1615 59.6927 14.0312 59.8594 13.9219C60.1094 13.7552 60.3802 13.6276 60.6719 13.5391C60.9688 13.4453 61.2812 13.3958 61.6094 13.3906C62.0521 13.3906 62.4531 13.4531 62.8125 13.5781C63.1771 13.7031 63.487 13.8984 63.7422 14.1641C63.9974 14.4297 64.1927 14.7682 64.3281 15.1797C64.4688 15.5859 64.5391 16.0703 64.5391 16.6328V22H63.0938V16.6641C63.0938 16.2891 63.0521 15.9714 62.9688 15.7109C62.8854 15.4505 62.763 15.2396 62.6016 15.0781C62.4349 14.9167 62.2318 14.7995 61.9922 14.7266C61.7578 14.6536 61.487 14.6172 61.1797 14.6172C60.9141 14.6172 60.6667 14.6562 60.4375 14.7344C60.2083 14.8073 59.9974 14.9089 59.8047 15.0391C59.6484 15.1536 59.5026 15.2865 59.3672 15.4375C59.237 15.5885 59.1224 15.7552 59.0234 15.9375V22H57.5781Z" fill="white"/>
<path d="M70.6094 11.5V13.5469H73.8281V14.6641H70.6094V19.2578C70.6094 19.5859 70.651 19.8568 70.7344 20.0703C70.8177 20.2839 70.9323 20.4531 71.0781 20.5781C71.224 20.7083 71.3906 20.7995 71.5781 20.8516C71.7708 20.9036 71.974 20.9297 72.1875 20.9297C72.3438 20.9297 72.5052 20.9219 72.6719 20.9062C72.8385 20.8854 73.0026 20.862 73.1641 20.8359C73.3203 20.8099 73.4661 20.7839 73.6016 20.7578C73.7422 20.7266 73.8568 20.7005 73.9453 20.6797L74.1484 21.7031C74.0286 21.776 73.8828 21.8411 73.7109 21.8984C73.5391 21.9505 73.3516 21.9948 73.1484 22.0312C72.9453 22.0729 72.7292 22.1042 72.5 22.125C72.276 22.1458 72.0521 22.1562 71.8281 22.1562C71.4531 22.1562 71.1016 22.1042 70.7734 22C70.4505 21.8906 70.1693 21.7188 69.9297 21.4844C69.6901 21.2552 69.5 20.9583 69.3594 20.5938C69.224 20.224 69.1562 19.7786 69.1562 19.2578V14.6641H66.9375V13.5469H69.1562V11.5H70.6094Z" fill="white"/>
<path d="M77.0234 13.5469H81.3438V20.75H84.1016V22H77.0234V20.75H79.8984V14.8047H77.0234V13.5469ZM79.7109 11.3281C79.7109 11.2031 79.7292 11.0859 79.7656 10.9766C79.8073 10.8672 79.8698 10.7734 79.9531 10.6953C80.0208 10.6276 80.1068 10.5755 80.2109 10.5391C80.3203 10.4974 80.4427 10.4766 80.5781 10.4766C80.7135 10.4766 80.8333 10.4974 80.9375 10.5391C81.0417 10.5755 81.1276 10.6276 81.1953 10.6953C81.2786 10.7682 81.3411 10.8594 81.3828 10.9688C81.4245 11.0781 81.4453 11.1979 81.4453 11.3281C81.4453 11.5625 81.3724 11.7578 81.2266 11.9141C81.0807 12.0703 80.8646 12.1484 80.5781 12.1484C80.2865 12.1484 80.0677 12.0703 79.9219 11.9141C79.7812 11.7578 79.7109 11.5625 79.7109 11.3281Z" fill="white"/>
<path d="M86.4062 22V13.5469H87.7031L87.8047 14.7969C87.9297 14.6198 88.0651 14.4583 88.2109 14.3125C88.362 14.1615 88.5208 14.0312 88.6875 13.9219C88.9375 13.7552 89.2083 13.6276 89.5 13.5391C89.7969 13.4453 90.1094 13.3958 90.4375 13.3906C90.8802 13.3906 91.2812 13.4531 91.6406 13.5781C92.0052 13.7031 92.3151 13.8984 92.5703 14.1641C92.8255 14.4297 93.0208 14.7682 93.1562 15.1797C93.2969 15.5859 93.3672 16.0703 93.3672 16.6328V22H91.9219V16.6641C91.9219 16.2891 91.8802 15.9714 91.7969 15.7109C91.7135 15.4505 91.5911 15.2396 91.4297 15.0781C91.263 14.9167 91.0599 14.7995 90.8203 14.7266C90.5859 14.6536 90.3151 14.6172 90.0078 14.6172C89.7422 14.6172 89.4948 14.6562 89.2656 14.7344C89.0365 14.8073 88.8255 14.9089 88.6328 15.0391C88.4766 15.1536 88.3307 15.2865 88.1953 15.4375C88.0651 15.5885 87.9505 15.7552 87.8516 15.9375V22H86.4062Z" fill="white"/>
<path d="M101.586 22L101.5 20.8359C101.219 21.2526 100.867 21.5781 100.445 21.8125C100.023 22.0417 99.5365 22.1562 98.9844 22.1562C98.5417 22.1562 98.1406 22.0885 97.7812 21.9531C97.4219 21.8125 97.1146 21.5964 96.8594 21.3047C96.6042 21.013 96.4062 20.6432 96.2656 20.1953C96.1302 19.7422 96.0625 19.2005 96.0625 18.5703V13.5469H97.5078V18.5859C97.5078 19.0443 97.5443 19.4245 97.6172 19.7266C97.6901 20.0286 97.7995 20.2682 97.9453 20.4453C98.0911 20.6276 98.2682 20.7552 98.4766 20.8281C98.6901 20.901 98.9349 20.9375 99.2109 20.9375C99.5339 20.9375 99.8229 20.901 100.078 20.8281C100.333 20.75 100.555 20.6432 100.742 20.5078C100.898 20.3984 101.034 20.2682 101.148 20.1172C101.268 19.9609 101.367 19.7917 101.445 19.6094V13.5469H102.898V22H101.586Z" fill="white"/>
<path d="M105.852 13.5469H110.172V20.75H112.93V22H105.852V20.75H108.727V14.8047H105.852V13.5469ZM108.539 11.3281C108.539 11.2031 108.557 11.0859 108.594 10.9766C108.635 10.8672 108.698 10.7734 108.781 10.6953C108.849 10.6276 108.935 10.5755 109.039 10.5391C109.148 10.4974 109.271 10.4766 109.406 10.4766C109.542 10.4766 109.661 10.4974 109.766 10.5391C109.87 10.5755 109.956 10.6276 110.023 10.6953C110.107 10.7682 110.169 10.8594 110.211 10.9688C110.253 11.0781 110.273 11.1979 110.273 11.3281C110.273 11.5625 110.201 11.7578 110.055 11.9141C109.909 12.0703 109.693 12.1484 109.406 12.1484C109.115 12.1484 108.896 12.0703 108.75 11.9141C108.609 11.7578 108.539 11.5625 108.539 11.3281Z" fill="white"/>
<path d="M118.656 11.5V13.5469H121.875V14.6641H118.656V19.2578C118.656 19.5859 118.698 19.8568 118.781 20.0703C118.865 20.2839 118.979 20.4531 119.125 20.5781C119.271 20.7083 119.438 20.7995 119.625 20.8516C119.818 20.9036 120.021 20.9297 120.234 20.9297C120.391 20.9297 120.552 20.9219 120.719 20.9062C120.885 20.8854 121.049 20.862 121.211 20.8359C121.367 20.8099 121.513 20.7839 121.648 20.7578C121.789 20.7266 121.904 20.7005 121.992 20.6797L122.195 21.7031C122.076 21.776 121.93 21.8411 121.758 21.8984C121.586 21.9505 121.398 21.9948 121.195 22.0312C120.992 22.0729 120.776 22.1042 120.547 22.125C120.323 22.1458 120.099 22.1562 119.875 22.1562C119.5 22.1562 119.148 22.1042 118.82 22C118.497 21.8906 118.216 21.7188 117.977 21.4844C117.737 21.2552 117.547 20.9583 117.406 20.5938C117.271 20.224 117.203 19.7786 117.203 19.2578V14.6641H114.984V13.5469H117.203V11.5H118.656Z" fill="white"/>
<path d="M125.523 25.4141C125.388 25.4141 125.229 25.3984 125.047 25.3672C124.865 25.3359 124.727 25.3099 124.633 25.2891L124.867 24.1094C124.997 24.1198 125.125 24.1276 125.25 24.1328C125.38 24.1432 125.482 24.1484 125.555 24.1484C125.753 24.1484 125.932 24.0938 126.094 23.9844C126.26 23.875 126.409 23.7448 126.539 23.5938C126.664 23.4427 126.771 23.2865 126.859 23.125C126.953 22.9635 127.026 22.8307 127.078 22.7266L127.656 21.6016L124.016 13.5469H125.633L127.953 19L128.328 20.0234L128.727 19.0312L130.906 13.5469H132.523L128.234 23.3047C128.135 23.5234 128.008 23.7552 127.852 24C127.701 24.2448 127.516 24.4714 127.297 24.6797C127.078 24.888 126.823 25.0625 126.531 25.2031C126.24 25.3438 125.904 25.4141 125.523 25.4141Z" fill="white"/>
<path d="M144.047 22V10.625H147.43C147.898 10.6302 148.357 10.6927 148.805 10.8125C149.253 10.9271 149.651 11.1068 150 11.3516C150.349 11.5964 150.628 11.9089 150.836 12.2891C151.044 12.6693 151.146 13.125 151.141 13.6562C151.135 13.9531 151.086 14.224 150.992 14.4688C150.904 14.7135 150.781 14.9323 150.625 15.125C150.464 15.3229 150.284 15.4896 150.086 15.625C149.893 15.7604 149.659 15.888 149.383 16.0078V16.0312C149.669 16.099 149.945 16.2214 150.211 16.3984C150.477 16.5755 150.695 16.7708 150.867 16.9844C151.049 17.2188 151.19 17.4818 151.289 17.7734C151.393 18.0651 151.445 18.3802 151.445 18.7188C151.451 19.25 151.349 19.7188 151.141 20.125C150.932 20.5312 150.654 20.8698 150.305 21.1406C149.956 21.4167 149.552 21.6276 149.094 21.7734C148.641 21.9193 148.172 21.9948 147.688 22H144.047ZM145.5 16.6797V20.7734H147.727C148.029 20.7682 148.315 20.7188 148.586 20.625C148.857 20.526 149.096 20.3906 149.305 20.2188C149.513 20.0469 149.677 19.8359 149.797 19.5859C149.922 19.3359 149.984 19.0521 149.984 18.7344C149.99 18.4115 149.935 18.125 149.82 17.875C149.711 17.625 149.557 17.4115 149.359 17.2344C149.161 17.0625 148.93 16.9297 148.664 16.8359C148.398 16.7422 148.112 16.6901 147.805 16.6797H145.5ZM145.5 15.4766H147.516C147.786 15.4714 148.052 15.4297 148.312 15.3516C148.573 15.2682 148.805 15.1484 149.008 14.9922C149.211 14.8411 149.375 14.6536 149.5 14.4297C149.625 14.2057 149.688 13.9453 149.688 13.6484C149.688 13.3307 149.625 13.0599 149.5 12.8359C149.38 12.612 149.219 12.4271 149.016 12.2812C148.807 12.1406 148.568 12.0365 148.297 11.9688C148.031 11.901 147.758 11.8646 147.477 11.8594H145.5V15.4766Z" fill="white"/>
<path d="M2 13.5L10.8616 1H166.027L188 19.5L179.048 31L23.8824 30.9997L2 13.5Z" stroke="#4DFFC4" stroke-width="2" mask="url(#path-1-outside-1_40_604)"/>
<path d="M45.7266 18.5781C45.6589 19.1042 45.5234 19.5885 45.3203 20.0312C45.1172 20.4688 44.8542 20.8438 44.5312 21.1562C44.2031 21.474 43.8151 21.7214 43.3672 21.8984C42.9245 22.0703 42.4297 22.1562 41.8828 22.1562C41.4141 22.1562 40.987 22.0911 40.6016 21.9609C40.2214 21.8255 39.8828 21.6406 39.5859 21.4062C39.2839 21.1719 39.0234 20.8958 38.8047 20.5781C38.5911 20.2604 38.4141 19.9141 38.2734 19.5391C38.1276 19.1641 38.0182 18.7708 37.9453 18.3594C37.8776 17.9479 37.8411 17.5312 37.8359 17.1094V15.5234C37.8411 15.1016 37.8776 14.6849 37.9453 14.2734C38.0182 13.862 38.1276 13.4688 38.2734 13.0938C38.4141 12.7188 38.5911 12.3724 38.8047 12.0547C39.0234 11.7318 39.2839 11.4531 39.5859 11.2188C39.8828 10.9844 40.2214 10.8021 40.6016 10.6719C40.9818 10.5365 41.4089 10.4688 41.8828 10.4688C42.4505 10.4688 42.9583 10.5573 43.4062 10.7344C43.8542 10.9062 44.2396 11.151 44.5625 11.4688C44.8854 11.7917 45.1432 12.1771 45.3359 12.625C45.5339 13.0729 45.6641 13.5677 45.7266 14.1094H44.2812C44.2344 13.7656 44.1536 13.4453 44.0391 13.1484C43.9245 12.8516 43.7708 12.5911 43.5781 12.3672C43.3854 12.1432 43.1484 11.9688 42.8672 11.8438C42.5911 11.7135 42.263 11.6484 41.8828 11.6484C41.5391 11.6484 41.2344 11.7057 40.9688 11.8203C40.7083 11.9297 40.4844 12.0807 40.2969 12.2734C40.1042 12.4661 39.9427 12.6901 39.8125 12.9453C39.6875 13.2005 39.5859 13.4714 39.5078 13.7578C39.4297 14.0443 39.3724 14.3385 39.3359 14.6406C39.3047 14.9375 39.2891 15.2266 39.2891 15.5078V17.1094C39.2891 17.3906 39.3047 17.6823 39.3359 17.9844C39.3724 18.2812 39.4297 18.5729 39.5078 18.8594C39.5859 19.151 39.6875 19.4245 39.8125 19.6797C39.9375 19.9349 40.0964 20.1589 40.2891 20.3516C40.4818 20.5495 40.7083 20.7057 40.9688 20.8203C41.2292 20.9297 41.5339 20.9844 41.8828 20.9844C42.263 20.9844 42.5911 20.9245 42.8672 20.8047C43.1484 20.6849 43.3854 20.5156 43.5781 20.2969C43.7708 20.0833 43.9245 19.8307 44.0391 19.5391C44.1536 19.2422 44.2344 18.9219 44.2812 18.5781H45.7266Z" stroke="#4DFFC4" stroke-width="2" mask="url(#path-1-outside-1_40_604)"/>
<path d="M47.5625 17.6953C47.5625 17.0859 47.651 16.5208 47.8281 16C48.0052 15.474 48.2604 15.0182 48.5938 14.6328C48.9219 14.2474 49.3229 13.9453 49.7969 13.7266C50.2708 13.5026 50.8047 13.3906 51.3984 13.3906C51.9974 13.3906 52.5339 13.5026 53.0078 13.7266C53.487 13.9453 53.8932 14.2474 54.2266 14.6328C54.5547 15.0182 54.8073 15.474 54.9844 16C55.1615 16.5208 55.25 17.0859 55.25 17.6953V17.8672C55.25 18.4766 55.1615 19.0417 54.9844 19.5625C54.8073 20.0833 54.5547 20.5365 54.2266 20.9219C53.8932 21.3073 53.4896 21.6094 53.0156 21.8281C52.5417 22.0469 52.0078 22.1562 51.4141 22.1562C50.8151 22.1562 50.276 22.0469 49.7969 21.8281C49.3229 21.6094 48.9219 21.3073 48.5938 20.9219C48.2604 20.5365 48.0052 20.0833 47.8281 19.5625C47.651 19.0417 47.5625 18.4766 47.5625 17.8672V17.6953ZM49.0078 17.8672C49.0078 18.2839 49.0573 18.6823 49.1562 19.0625C49.2552 19.4375 49.4062 19.7682 49.6094 20.0547C49.8073 20.3411 50.0573 20.5677 50.3594 20.7344C50.6615 20.901 51.013 20.9844 51.4141 20.9844C51.8099 20.9844 52.1562 20.901 52.4531 20.7344C52.7552 20.5677 53.0078 20.3411 53.2109 20.0547C53.4089 19.7682 53.5573 19.4375 53.6562 19.0625C53.7552 18.6823 53.8047 18.2839 53.8047 17.8672V17.6953C53.8047 17.2839 53.7526 16.8906 53.6484 16.5156C53.5495 16.1354 53.401 15.8021 53.2031 15.5156C53 15.2292 52.7474 15.0026 52.4453 14.8359C52.1484 14.6641 51.7995 14.5781 51.3984 14.5781C50.9974 14.5781 50.6484 14.6641 50.3516 14.8359C50.0547 15.0026 49.8073 15.2292 49.6094 15.5156C49.4062 15.8021 49.2552 16.1354 49.1562 16.5156C49.0573 16.8906 49.0078 17.2839 49.0078 17.6953V17.8672Z" stroke="#4DFFC4" stroke-width="2" mask="url(#path-1-outside-1_40_604)"/>
<path d="M57.5781 22V13.5469H58.875L58.9766 14.7969C59.1016 14.6198 59.237 14.4583 59.3828 14.3125C59.5339 14.1615 59.6927 14.0312 59.8594 13.9219C60.1094 13.7552 60.3802 13.6276 60.6719 13.5391C60.9688 13.4453 61.2812 13.3958 61.6094 13.3906C62.0521 13.3906 62.4531 13.4531 62.8125 13.5781C63.1771 13.7031 63.487 13.8984 63.7422 14.1641C63.9974 14.4297 64.1927 14.7682 64.3281 15.1797C64.4688 15.5859 64.5391 16.0703 64.5391 16.6328V22H63.0938V16.6641C63.0938 16.2891 63.0521 15.9714 62.9688 15.7109C62.8854 15.4505 62.763 15.2396 62.6016 15.0781C62.4349 14.9167 62.2318 14.7995 61.9922 14.7266C61.7578 14.6536 61.487 14.6172 61.1797 14.6172C60.9141 14.6172 60.6667 14.6562 60.4375 14.7344C60.2083 14.8073 59.9974 14.9089 59.8047 15.0391C59.6484 15.1536 59.5026 15.2865 59.3672 15.4375C59.237 15.5885 59.1224 15.7552 59.0234 15.9375V22H57.5781Z" stroke="#4DFFC4" stroke-width="2" mask="url(#path-1-outside-1_40_604)"/>
<path d="M70.6094 11.5V13.5469H73.8281V14.6641H70.6094V19.2578C70.6094 19.5859 70.651 19.8568 70.7344 20.0703C70.8177 20.2839 70.9323 20.4531 71.0781 20.5781C71.224 20.7083 71.3906 20.7995 71.5781 20.8516C71.7708 20.9036 71.974 20.9297 72.1875 20.9297C72.3438 20.9297 72.5052 20.9219 72.6719 20.9062C72.8385 20.8854 73.0026 20.862 73.1641 20.8359C73.3203 20.8099 73.4661 20.7839 73.6016 20.7578C73.7422 20.7266 73.8568 20.7005 73.9453 20.6797L74.1484 21.7031C74.0286 21.776 73.8828 21.8411 73.7109 21.8984C73.5391 21.9505 73.3516 21.9948 73.1484 22.0312C72.9453 22.0729 72.7292 22.1042 72.5 22.125C72.276 22.1458 72.0521 22.1562 71.8281 22.1562C71.4531 22.1562 71.1016 22.1042 70.7734 22C70.4505 21.8906 70.1693 21.7188 69.9297 21.4844C69.6901 21.2552 69.5 20.9583 69.3594 20.5938C69.224 20.224 69.1562 19.7786 69.1562 19.2578V14.6641H66.9375V13.5469H69.1562V11.5H70.6094Z" stroke="#4DFFC4" stroke-width="2" mask="url(#path-1-outside-1_40_604)"/>
<path d="M77.0234 13.5469H81.3438V20.75H84.1016V22H77.0234V20.75H79.8984V14.8047H77.0234V13.5469ZM79.7109 11.3281C79.7109 11.2031 79.7292 11.0859 79.7656 10.9766C79.8073 10.8672 79.8698 10.7734 79.9531 10.6953C80.0208 10.6276 80.1068 10.5755 80.2109 10.5391C80.3203 10.4974 80.4427 10.4766 80.5781 10.4766C80.7135 10.4766 80.8333 10.4974 80.9375 10.5391C81.0417 10.5755 81.1276 10.6276 81.1953 10.6953C81.2786 10.7682 81.3411 10.8594 81.3828 10.9688C81.4245 11.0781 81.4453 11.1979 81.4453 11.3281C81.4453 11.5625 81.3724 11.7578 81.2266 11.9141C81.0807 12.0703 80.8646 12.1484 80.5781 12.1484C80.2865 12.1484 80.0677 12.0703 79.9219 11.9141C79.7812 11.7578 79.7109 11.5625 79.7109 11.3281Z" stroke="#4DFFC4" stroke-width="2" mask="url(#path-1-outside-1_40_604)"/>
<path d="M86.4062 22V13.5469H87.7031L87.8047 14.7969C87.9297 14.6198 88.0651 14.4583 88.2109 14.3125C88.362 14.1615 88.5208 14.0312 88.6875 13.9219C88.9375 13.7552 89.2083 13.6276 89.5 13.5391C89.7969 13.4453 90.1094 13.3958 90.4375 13.3906C90.8802 13.3906 91.2812 13.4531 91.6406 13.5781C92.0052 13.7031 92.3151 13.8984 92.5703 14.1641C92.8255 14.4297 93.0208 14.7682 93.1562 15.1797C93.2969 15.5859 93.3672 16.0703 93.3672 16.6328V22H91.9219V16.6641C91.9219 16.2891 91.8802 15.9714 91.7969 15.7109C91.7135 15.4505 91.5911 15.2396 91.4297 15.0781C91.263 14.9167 91.0599 14.7995 90.8203 14.7266C90.5859 14.6536 90.3151 14.6172 90.0078 14.6172C89.7422 14.6172 89.4948 14.6562 89.2656 14.7344C89.0365 14.8073 88.8255 14.9089 88.6328 15.0391C88.4766 15.1536 88.3307 15.2865 88.1953 15.4375C88.0651 15.5885 87.9505 15.7552 87.8516 15.9375V22H86.4062Z" stroke="#4DFFC4" stroke-width="2" mask="url(#path-1-outside-1_40_604)"/>
<path d="M101.586 22L101.5 20.8359C101.219 21.2526 100.867 21.5781 100.445 21.8125C100.023 22.0417 99.5365 22.1562 98.9844 22.1562C98.5417 22.1562 98.1406 22.0885 97.7812 21.9531C97.4219 21.8125 97.1146 21.5964 96.8594 21.3047C96.6042 21.013 96.4062 20.6432 96.2656 20.1953C96.1302 19.7422 96.0625 19.2005 96.0625 18.5703V13.5469H97.5078V18.5859C97.5078 19.0443 97.5443 19.4245 97.6172 19.7266C97.6901 20.0286 97.7995 20.2682 97.9453 20.4453C98.0911 20.6276 98.2682 20.7552 98.4766 20.8281C98.6901 20.901 98.9349 20.9375 99.2109 20.9375C99.5339 20.9375 99.8229 20.901 100.078 20.8281C100.333 20.75 100.555 20.6432 100.742 20.5078C100.898 20.3984 101.034 20.2682 101.148 20.1172C101.268 19.9609 101.367 19.7917 101.445 19.6094V13.5469H102.898V22H101.586Z" stroke="#4DFFC4" stroke-width="2" mask="url(#path-1-outside-1_40_604)"/>
<path d="M105.852 13.5469H110.172V20.75H112.93V22H105.852V20.75H108.727V14.8047H105.852V13.5469ZM108.539 11.3281C108.539 11.2031 108.557 11.0859 108.594 10.9766C108.635 10.8672 108.698 10.7734 108.781 10.6953C108.849 10.6276 108.935 10.5755 109.039 10.5391C109.148 10.4974 109.271 10.4766 109.406 10.4766C109.542 10.4766 109.661 10.4974 109.766 10.5391C109.87 10.5755 109.956 10.6276 110.023 10.6953C110.107 10.7682 110.169 10.8594 110.211 10.9688C110.253 11.0781 110.273 11.1979 110.273 11.3281C110.273 11.5625 110.201 11.7578 110.055 11.9141C109.909 12.0703 109.693 12.1484 109.406 12.1484C109.115 12.1484 108.896 12.0703 108.75 11.9141C108.609 11.7578 108.539 11.5625 108.539 11.3281Z" stroke="#4DFFC4" stroke-width="2" mask="url(#path-1-outside-1_40_604)"/>
<path d="M118.656 11.5V13.5469H121.875V14.6641H118.656V19.2578C118.656 19.5859 118.698 19.8568 118.781 20.0703C118.865 20.2839 118.979 20.4531 119.125 20.5781C119.271 20.7083 119.438 20.7995 119.625 20.8516C119.818 20.9036 120.021 20.9297 120.234 20.9297C120.391 20.9297 120.552 20.9219 120.719 20.9062C120.885 20.8854 121.049 20.862 121.211 20.8359C121.367 20.8099 121.513 20.7839 121.648 20.7578C121.789 20.7266 121.904 20.7005 121.992 20.6797L122.195 21.7031C122.076 21.776 121.93 21.8411 121.758 21.8984C121.586 21.9505 121.398 21.9948 121.195 22.0312C120.992 22.0729 120.776 22.1042 120.547 22.125C120.323 22.1458 120.099 22.1562 119.875 22.1562C119.5 22.1562 119.148 22.1042 118.82 22C118.497 21.8906 118.216 21.7188 117.977 21.4844C117.737 21.2552 117.547 20.9583 117.406 20.5938C117.271 20.224 117.203 19.7786 117.203 19.2578V14.6641H114.984V13.5469H117.203V11.5H118.656Z" stroke="#4DFFC4" stroke-width="2" mask="url(#path-1-outside-1_40_604)"/>
<path d="M125.523 25.4141C125.388 25.4141 125.229 25.3984 125.047 25.3672C124.865 25.3359 124.727 25.3099 124.633 25.2891L124.867 24.1094C124.997 24.1198 125.125 24.1276 125.25 24.1328C125.38 24.1432 125.482 24.1484 125.555 24.1484C125.753 24.1484 125.932 24.0938 126.094 23.9844C126.26 23.875 126.409 23.7448 126.539 23.5938C126.664 23.4427 126.771 23.2865 126.859 23.125C126.953 22.9635 127.026 22.8307 127.078 22.7266L127.656 21.6016L124.016 13.5469H125.633L127.953 19L128.328 20.0234L128.727 19.0312L130.906 13.5469H132.523L128.234 23.3047C128.135 23.5234 128.008 23.7552 127.852 24C127.701 24.2448 127.516 24.4714 127.297 24.6797C127.078 24.888 126.823 25.0625 126.531 25.2031C126.24 25.3438 125.904 25.4141 125.523 25.4141Z" stroke="#4DFFC4" stroke-width="2" mask="url(#path-1-outside-1_40_604)"/>
<path d="M144.047 22V10.625H147.43C147.898 10.6302 148.357 10.6927 148.805 10.8125C149.253 10.9271 149.651 11.1068 150 11.3516C150.349 11.5964 150.628 11.9089 150.836 12.2891C151.044 12.6693 151.146 13.125 151.141 13.6562C151.135 13.9531 151.086 14.224 150.992 14.4688C150.904 14.7135 150.781 14.9323 150.625 15.125C150.464 15.3229 150.284 15.4896 150.086 15.625C149.893 15.7604 149.659 15.888 149.383 16.0078V16.0312C149.669 16.099 149.945 16.2214 150.211 16.3984C150.477 16.5755 150.695 16.7708 150.867 16.9844C151.049 17.2188 151.19 17.4818 151.289 17.7734C151.393 18.0651 151.445 18.3802 151.445 18.7188C151.451 19.25 151.349 19.7188 151.141 20.125C150.932 20.5312 150.654 20.8698 150.305 21.1406C149.956 21.4167 149.552 21.6276 149.094 21.7734C148.641 21.9193 148.172 21.9948 147.688 22H144.047ZM145.5 16.6797V20.7734H147.727C148.029 20.7682 148.315 20.7188 148.586 20.625C148.857 20.526 149.096 20.3906 149.305 20.2188C149.513 20.0469 149.677 19.8359 149.797 19.5859C149.922 19.3359 149.984 19.0521 149.984 18.7344C149.99 18.4115 149.935 18.125 149.82 17.875C149.711 17.625 149.557 17.4115 149.359 17.2344C149.161 17.0625 148.93 16.9297 148.664 16.8359C148.398 16.7422 148.112 16.6901 147.805 16.6797H145.5ZM145.5 15.4766H147.516C147.786 15.4714 148.052 15.4297 148.312 15.3516C148.573 15.2682 148.805 15.1484 149.008 14.9922C149.211 14.8411 149.375 14.6536 149.5 14.4297C149.625 14.2057 149.688 13.9453 149.688 13.6484C149.688 13.3307 149.625 13.0599 149.5 12.8359C149.38 12.612 149.219 12.4271 149.016 12.2812C148.807 12.1406 148.568 12.0365 148.297 11.9688C148.031 11.901 147.758 11.8646 147.477 11.8594H145.5V15.4766Z" stroke="#4DFFC4" stroke-width="2" mask="url(#path-1-outside-1_40_604)"/>
</svg>
