<?xml version="1.0" encoding="utf-8"?>
<!-- Generator: Adobe Illustrator 28.4.1, SVG Export Plug-In . SVG Version: 6.00 Build 0)  -->
<svg version="1.1" id="Layer_1" xmlns="http://www.w3.org/2000/svg" xmlns:xlink="http://www.w3.org/1999/xlink" x="0px" y="0px"
	 viewBox="0 0 232.12 219.73" style="enable-background:new 0 0 232.12 219.73;" xml:space="preserve">
<g id="Light_x5F_Colour_00000116211672952556471460000016663447204245493909_">
	<g id="Secondary_00000121996614978036441150000010462321038429771442_">
		<g>
			<path d="M93.76,71.81c-4.05,0-7.8,2.16-9.83,5.67L68.51,104.2c-2.03,3.51-2.03,7.84,0,11.35l15.42,26.71
				c2.03,3.51,5.77,5.67,9.83,5.67h3.15l0-76.12H93.76z"/>
		</g>
		<g>
			<path d="M138.29,71.81c4.05,0,7.8,2.16,9.83,5.67l15.42,26.71c2.03,3.51,2.03,7.84,0,11.35l-15.42,26.71
				c-2.03,3.51-5.77,5.67-9.83,5.67h-3.15l0-76.12H138.29z"/>
		</g>
		<path d="M112.02,172.48L112.02,172.48c-1.37,1.88-1.95,4.21-1.63,6.51l5.64,40.23c0.1,0.68,1.09,0.67,1.16-0.02l4.36-40.87
			c0.23-2.12-0.37-4.24-1.66-5.94h0C117.9,169.78,113.95,169.83,112.02,172.48z"/>
	</g>
	<g id="Primary_00000103230811187198233810000008981073753478338198_">
		<path d="M81.85,49.61L57,6.57l-8.55,14.82l19.13,33.13c0.49,0.84,0.49,1.88,0,2.72L49.09,89.24c-0.49,0.84-1.38,1.36-2.36,1.36
			l-38.25,0l-8.41,14.57l49.7,0c4.47,0,8.61-2.39,10.85-6.26l21.23-36.78C84.09,58.26,84.09,53.48,81.85,49.61z"/>
		<path d="M150.17,49.55l24.85-43.04l8.55,14.82l-19.13,33.13c-0.49,0.84-0.49,1.88,0,2.72l18.48,32.01
			c0.49,0.84,1.38,1.36,2.36,1.36l38.25,0l8.41,14.57l-49.7,0c-4.47,0-8.61-2.39-10.85-6.26l-21.23-36.78
			C147.94,58.2,147.94,53.42,150.17,49.55z"/>
		<path d="M81.78,170.18l-24.85,43.04l-8.55-14.82l19.13-33.13c0.49-0.84,0.49-1.88,0-2.72l-18.48-32.01
			c-0.49-0.84-1.38-1.36-2.36-1.36H8.41L0,114.62l49.7,0c4.47,0,8.61,2.39,10.85,6.26l21.23,36.78
			C84.02,161.53,84.02,166.31,81.78,170.18z"/>
		<path d="M150.34,170.07l24.85,43.04l8.55-14.82l-19.13-33.13c-0.49-0.84-0.49-1.88,0-2.72l18.48-32.01
			c0.49-0.84,1.38-1.36,2.36-1.36l38.25,0l8.41-14.57l-49.7,0c-4.47,0-8.61,2.39-10.85,6.26l-21.23,36.78
			C148.1,161.42,148.1,166.19,150.34,170.07z"/>
		<g>
			<path d="M125.67,43.11c0.24-18.24-4.04-33.13-9.61-43.11c-5.57,9.98-9.85,24.87-9.61,43.11h0.02c0.07,6.79-0.02,8.78-0.02,14.84
				h-0.01l0,97.68h0.72c10.22,0,18.5,0.07,18.5-10.15l0-87.53h0c0.01-6.72-0.09-8.16-0.02-14.84H125.67z"/>
		</g>
		<path d="M109.17,159.24C109.17,159.24,109.16,159.3,109.17,159.24c0,0-0.65,4.46-0.98,6.7c2.03,0,4.07,0,6.1,0
			c4.97,0,9.07,0.03,9.66-4.2c0.09-0.61,0.05-1.23-0.09-1.83c-0.56-2.45-0.14-0.33-0.7-2.79
			C120.13,158.92,116.53,159.24,109.17,159.24z"/>
	</g>
</g>
</svg>
