<svg width="638" height="806" viewBox="0 0 638 806" fill="none" xmlns="http://www.w3.org/2000/svg">
<mask id="path-1-inside-1_66_70" fill="white">
<path d="M588.503 1L638 50.4971V756.503L588.503 806H49.4971L0 756.503V50.4971L49.4971 1H588.503Z"/>
</mask>
<path d="M588.503 1L638 50.4971V756.503L588.503 806H49.4971L0 756.503V50.4971L49.4971 1H588.503Z" fill="#4DFFC4" fill-opacity="0.1"/>
<path d="M588.503 1L589.21 0.292893L588.917 0H588.503V1ZM638 50.4971H639V50.0829L638.707 49.79L638 50.4971ZM638 756.503L638.707 757.21L639 756.917V756.503H638ZM588.503 806V807H588.917L589.21 806.707L588.503 806ZM49.4971 806L48.79 806.707L49.0829 807H49.4971V806ZM0 756.503H-1V756.917L-0.707107 757.21L0 756.503ZM0 50.4971L-0.707107 49.79L-1 50.0829V50.4971H0ZM49.4971 1V0H49.0829L48.79 0.292893L49.4971 1ZM588.503 1L587.796 1.70711L637.293 51.2042L638 50.4971L638.707 49.79L589.21 0.292893L588.503 1ZM638 50.4971H637V756.503H638H639V50.4971H638ZM638 756.503L637.293 755.796L587.796 805.293L588.503 806L589.21 806.707L638.707 757.21L638 756.503ZM588.503 806V805H49.4971V806V807H588.503V806ZM49.4971 806L50.2042 805.293L0.707107 755.796L0 756.503L-0.707107 757.21L48.79 806.707L49.4971 806ZM0 756.503H1V50.4971H0H-1V756.503H0ZM0 50.4971L0.707107 51.2042L50.2042 1.70711L49.4971 1L48.79 0.292893L-0.707107 49.79L0 50.4971ZM49.4971 1V2H588.503V1V0H49.4971V1Z" fill="#4DFFC4" fill-opacity="0.8" mask="url(#path-1-inside-1_66_70)"/>
<path d="M2 756.456V709.279L19.1533 725.122V752.583L55.8613 788.846H85.0219L96 803.985H48.3139L2 756.456Z" stroke="#4DFFC4" stroke-opacity="0.8" stroke-width="4"/>
<path d="M635 756.456V709.279L617.847 725.122V752.583L581.139 788.846H551.978L541 803.985H588.686L635 756.456Z" stroke="#4DFFC4" stroke-opacity="0.8" stroke-width="4"/>
<path d="M2 49.5365V96.7134L19.1533 80.8704V53.4092L55.8613 17.1464H85.0219L96 2.0075H48.3139L2 49.5365Z" stroke="#4DFFC4" stroke-opacity="0.8" stroke-width="4"/>
<path d="M635 49.5365V96.7134L617.847 80.8704V53.4092L581.139 17.1464H551.978L541 2.0075H588.686L635 49.5365Z" stroke="#4DFFC4" stroke-opacity="0.8" stroke-width="4"/>
</svg>
