<svg width="71" height="151" viewBox="0 0 71 151" fill="none" xmlns="http://www.w3.org/2000/svg">
<path d="M25.6026 148.524C29.1075 148.511 34.0392 148.463 38.3642 148.437C40.8594 148.421 43.1524 148.414 44.8388 148.426C45.3185 148.429 45.7531 148.435 46.1318 148.442L46.1362 141.061L46.1362 140.173L46.9136 139.748L46.9136 139.747L46.9155 139.746C46.9173 139.745 46.9202 139.743 46.9243 139.741C46.9331 139.736 46.9471 139.728 46.9663 139.718C47.0046 139.696 47.0638 139.663 47.1418 139.618C47.2979 139.528 47.5305 139.393 47.8284 139.214C48.4249 138.854 49.2833 138.318 50.3152 137.621C52.3818 136.225 55.132 134.191 57.8764 131.637C63.3388 126.554 68.5018 119.671 68.6691 111.847L68.6731 111.473C68.6812 102.851 68.686 89.5597 68.6888 78.4231C68.6902 72.8548 68.6913 67.8251 68.6919 64.1877C68.6922 62.369 68.6921 60.898 68.6923 59.882C68.6923 59.374 68.6926 58.9794 68.6926 58.7121C68.6927 58.5786 68.6929 58.4768 68.693 58.4084L68.6927 58.3039L68.7133 1.5841L1.78647 1.59624L1.76587 58.3219L1.76609 58.4254C1.76609 58.4943 1.7658 58.5967 1.76579 58.7311C1.76576 58.9999 1.76548 59.3966 1.76543 59.9078C1.76531 60.9303 1.76541 62.4114 1.76514 64.2457C1.76459 67.9147 1.76386 72.9974 1.76243 78.651C1.75958 89.9268 1.75419 103.476 1.74581 112.615C2.57691 121.171 6.97154 127.366 11.8579 131.732C16.1572 135.573 20.7931 137.954 23.5852 139.216L24.6624 139.689C25.1868 139.913 25.3936 140.347 25.4247 140.409C25.4923 140.545 25.5262 140.662 25.5407 140.716C25.5721 140.833 25.5865 140.941 25.594 140.999C25.6107 141.13 25.621 141.28 25.6281 141.422C25.643 141.715 25.6516 142.109 25.656 142.554C25.6649 143.449 25.6583 144.623 25.6454 145.769C25.6342 146.765 25.617 147.749 25.6026 148.524Z" fill="#403E3E" stroke="#F79322" stroke-width="3"/>
</svg>
