<svg width="1166" height="709" viewBox="0 0 1166 709" fill="none" xmlns="http://www.w3.org/2000/svg">
<path d="M1 134.244V174.607H143V132.607" stroke="#F79322" stroke-width="2"/>
<path d="M141 174.607H263" stroke="#F79322" stroke-width="2"/>
<path d="M987.5 559H1161V399.5M813 172H900.5H934M991 172H1165V260" stroke="#F79322" stroke-width="2"/>
<path d="M1.18738 1.09816V70.2822" stroke="#F79322" stroke-width="2"/>
<path d="M142.925 0V69.7331" stroke="#F79322" stroke-width="2"/>
<path d="M82.424 365.879L81.7212 404.243L81.0183 442.608" stroke="#F79322" stroke-width="2"/>
<path d="M520 560L765 558.944" stroke="#F79322" stroke-width="2"/>
<path d="M361.076 560.336H473.076" stroke="#F79322" stroke-width="2"/>
<path d="M263 174.607H363V137.607" stroke="#F79322" stroke-width="2"/>
<path d="M81 499.607V560.607" stroke="#F79322" stroke-width="2"/>
<path d="M362.076 174.336H442.576" stroke="#F79322" stroke-width="2"/>
<path d="M711 352.5V273.5M685 248H587V170" stroke="#F79322" stroke-width="2"/>
<path d="M490.576 173.336H590.762H669.576" stroke="#F79322" stroke-width="2"/>
<path d="M260.783 561.043C261.174 560.652 261.174 560.019 260.783 559.628L254.419 553.265C254.029 552.874 253.395 552.874 253.005 553.265C252.614 553.655 252.614 554.288 253.005 554.679L258.662 560.336L253.005 565.992C252.614 566.383 252.614 567.016 253.005 567.407C253.395 567.797 254.029 567.797 254.419 567.407L260.783 561.043ZM80.0759 560.336V561.336H260.076V560.336V559.336H80.0759V560.336Z" fill="#F79322"/>
<path d="M361.783 561.043C362.174 560.652 362.174 560.019 361.783 559.628L355.419 553.265C355.029 552.874 354.395 552.874 354.005 553.265C353.614 553.655 353.614 554.288 354.005 554.679L359.662 560.336L354.005 565.992C353.614 566.383 353.614 567.016 354.005 567.407C354.395 567.797 355.029 567.797 355.419 567.407L361.783 561.043ZM312.076 560.336V561.336H361.076V560.336V559.336H312.076V560.336Z" fill="#F79322"/>
<path d="M406.576 670.836V707.336H284.076V677.836" stroke="#F79322" stroke-width="2"/>
<line x1="407.076" y1="560.318" x2="408" y2="611.982" stroke="#F79322" stroke-width="2"/>
<path d="M711 352.5H533.5" stroke="#F79322" stroke-width="2"/>
<path d="M710 172H812M812 352.5H710" stroke="#F79322" stroke-width="2"/>
<path d="M812 171L812.15 225.299M812.5 352.5L812.287 275.073" stroke="#F79322" stroke-width="2"/>
<path d="M809 559H938" stroke="#F79322" stroke-width="2"/>
<path d="M1041 156.5V147V172.5" stroke="#F79322" stroke-width="2"/>
</svg>
