<svg width="40" height="40" viewBox="0 0 40 40" fill="none" xmlns="http://www.w3.org/2000/svg">
<circle cx="20" cy="20" r="19.5" stroke="white"/>
<path d="M18.9941 11.127H15.918V20H14.6875V11.127H11.6113V10.0469H18.9941V11.127ZM23.9844 15.9395H21.9951V20H20.7373V10.0469H23.6562C24.1211 10.056 24.5586 10.1221 24.9688 10.2451C25.3789 10.3682 25.7389 10.5527 26.0488 10.7988C26.3542 11.0449 26.5934 11.3548 26.7666 11.7285C26.9443 12.0977 27.0332 12.5329 27.0332 13.0342C27.0332 13.3577 26.9854 13.654 26.8896 13.9229C26.7985 14.1917 26.6709 14.4355 26.5068 14.6543C26.3428 14.873 26.1468 15.0667 25.9189 15.2354C25.6911 15.404 25.4404 15.5475 25.167 15.666L27.2793 19.918L27.2725 20H25.9395L23.9844 15.9395ZM21.9951 14.9004H23.6904C23.973 14.8958 24.2396 14.8525 24.4902 14.7705C24.7409 14.6839 24.9619 14.5609 25.1533 14.4014C25.3402 14.2419 25.4883 14.0482 25.5977 13.8203C25.707 13.5879 25.7617 13.3213 25.7617 13.0205C25.7617 12.7015 25.7093 12.4235 25.6045 12.1865C25.4997 11.945 25.3538 11.7422 25.167 11.5781C24.9801 11.4186 24.7568 11.2979 24.4971 11.2158C24.2419 11.1338 23.9616 11.0905 23.6562 11.0859H21.9951V14.9004Z" fill="white"/>
</svg>
